# xmcd
#
# Track frame offsets:
#	150
#	15756
#	37051
#	52597
#	70124
#	83296
#	101689
#	125845
#	146610
#	162604
#	185904
#	200939
#	219790
#	238171
#	255839
#
# Disc length: 3611 seconds
#
# Revision: 0
# Processed by: cddbd v1.5.2PL0 Copyright (c) Steve Scherf et al.
# Submitted via: EasyCDDAExtractor 12.0.0.1
#
DISCID=cc0e190f
DTITLE=Various Artist - Moments In Sax
DYEAR=1900
DGENRE=Blues
TTITLE0=Elton John - Blue Eyes
TTITLE1=Whitney Houston - The Greatest Love Of All
TTITLE2=Phil Collins - Take A Look At Me Now
TTITLE3=Elton John - Candle In The Wind
TTITLE4=Kenny G - As Time Goes By
TTITLE5=Simply Red - We're In This Together
TTITLE6=Kenny G - Stranger On The Shore
TTITLE7=Kenny G - Tradewinds
TTITLE8=Unknown Artist - The Shadow Of Your Shine
TTITLE9=Kenny G - Silhouette
TTITLE10=Simply Red - If You Don't Know Me By Now
TTITLE11=Mariah Carey - I'll Be There
TTITLE12=Lionel Richie - Hello
TTITLE13=Simply Red - Holding Back The Years
TTITLE14=Nat King Cole - Unforgettable
EXTD=
EXTT0=
EXTT1=
EXTT2=
EXTT3=
EXTT4=
EXTT5=
EXTT6=
EXTT7=
EXTT8=
EXTT9=
EXTT10=
EXTT11=
EXTT12=
EXTT13=
EXTT14=
PLAYORDER=
